<svg width="1200" height="900" viewBox="0 0 1200 900" xmlns="http://www.w3.org/2000/svg" font-family="Arial, sans-serif">
  <defs>
    <marker id="arrow" viewBox="0 0 10 10" refX="8" refY="5" markerWidth="6" markerHeight="6" orient="auto-start-reverse">
      <path d="M2 1L8 5L2 9" fill="none" stroke="#73726c" stroke-width="1.5" stroke-linecap="round" stroke-linejoin="round"/>
    </marker>
  </defs>

  <!-- Background -->
  <rect width="1200" height="900" fill="#fafaf8"/>

  <!-- Title -->
  <text x="600" y="38" text-anchor="middle" font-size="22" font-weight="600" fill="#2c2c2a">Kütüphane Sistemi — ER Diyagramı</text>

  <!-- ===== KITAP (top center) ===== -->
  <g id="kitap">
    <rect x="460" y="60" width="200" height="240" rx="8" fill="#e6f1fb" stroke="#185fa5" stroke-width="1.5"/>
    <rect x="460" y="60" width="200" height="34" rx="8" fill="#185fa5"/>
    <rect x="460" y="86" width="200" height="8" fill="#185fa5"/>
    <text x="560" y="83" text-anchor="middle" font-size="13" font-weight="700" fill="#ffffff">KİTAP</text>
    <text x="475" y="114" font-size="11" fill="#0c447c">🔑 kitap_id (PK)</text>
    <text x="475" y="132" font-size="11" fill="#2c4a6e">isbn</text>
    <text x="475" y="150" font-size="11" fill="#2c4a6e">baslik</text>
    <text x="475" y="168" font-size="11" fill="#2c4a6e">yazar</text>
    <text x="475" y="186" font-size="11" fill="#2c4a6e">yayinevi</text>
    <text x="475" y="204" font-size="11" fill="#2c4a6e">yayim_yili</text>
    <text x="475" y="222" font-size="11" fill="#2c4a6e">kategori</text>
    <text x="475" y="240" font-size="11" fill="#2c4a6e">stok_adet</text>
    <!-- dividers -->
    <line x1="460" y1="120" x2="660" y2="120" stroke="#b5d4f4" stroke-width="0.5"/>
    <line x1="460" y1="138" x2="660" y2="138" stroke="#b5d4f4" stroke-width="0.5"/>
    <line x1="460" y1="156" x2="660" y2="156" stroke="#b5d4f4" stroke-width="0.5"/>
    <line x1="460" y1="174" x2="660" y2="174" stroke="#b5d4f4" stroke-width="0.5"/>
    <line x1="460" y1="192" x2="660" y2="192" stroke="#b5d4f4" stroke-width="0.5"/>
    <line x1="460" y1="210" x2="660" y2="210" stroke="#b5d4f4" stroke-width="0.5"/>
    <line x1="460" y1="228" x2="660" y2="228" stroke="#b5d4f4" stroke-width="0.5"/>
  </g>

  <!-- ===== ÖĞRENCİ (left) ===== -->
  <g id="ogrenci">
    <rect x="60" y="200" width="200" height="222" rx="8" fill="#e1f5ee" stroke="#0f6e56" stroke-width="1.5"/>
    <rect x="60" y="200" width="200" height="34" rx="8" fill="#0f6e56"/>
    <rect x="60" y="226" width="200" height="8" fill="#0f6e56"/>
    <text x="160" y="223" text-anchor="middle" font-size="13" font-weight="700" fill="#ffffff">ÖĞRENCİ</text>
    <text x="75" y="254" font-size="11" fill="#085041">🔑 ogrenci_id (PK)</text>
    <text x="75" y="272" font-size="11" fill="#0a3d30">ad</text>
    <text x="75" y="290" font-size="11" fill="#0a3d30">soyad</text>
    <text x="75" y="308" font-size="11" fill="#0a3d30">email</text>
    <text x="75" y="326" font-size="11" fill="#0a3d30">telefon</text>
    <text x="75" y="344" font-size="11" fill="#0a3d30">kayit_tarihi</text>
    <text x="75" y="362" font-size="11" fill="#0a3d30">bolum</text>
    <line x1="60" y1="260" x2="260" y2="260" stroke="#9fe1cb" stroke-width="0.5"/>
    <line x1="60" y1="278" x2="260" y2="278" stroke="#9fe1cb" stroke-width="0.5"/>
    <line x1="60" y1="296" x2="260" y2="296" stroke="#9fe1cb" stroke-width="0.5"/>
    <line x1="60" y1="314" x2="260" y2="314" stroke="#9fe1cb" stroke-width="0.5"/>
    <line x1="60" y1="332" x2="260" y2="332" stroke="#9fe1cb" stroke-width="0.5"/>
    <line x1="60" y1="350" x2="260" y2="350" stroke="#9fe1cb" stroke-width="0.5"/>
  </g>

  <!-- ===== GÖREVLİ (right) ===== -->
  <g id="gorevli">
    <rect x="940" y="200" width="200" height="204" rx="8" fill="#faeeda" stroke="#854f0b" stroke-width="1.5"/>
    <rect x="940" y="200" width="200" height="34" rx="8" fill="#854f0b"/>
    <rect x="940" y="226" width="200" height="8" fill="#854f0b"/>
    <text x="1040" y="223" text-anchor="middle" font-size="13" font-weight="700" fill="#ffffff">GÖREVLİ</text>
    <text x="955" y="254" font-size="11" fill="#633806">🔑 gorevli_id (PK)</text>
    <text x="955" y="272" font-size="11" fill="#412402">ad</text>
    <text x="955" y="290" font-size="11" fill="#412402">soyad</text>
    <text x="955" y="308" font-size="11" fill="#412402">email</text>
    <text x="955" y="326" font-size="11" fill="#412402">rol</text>
    <text x="955" y="344" font-size="11" fill="#412402">baslangic_tarihi</text>
    <line x1="940" y1="260" x2="1140" y2="260" stroke="#fac775" stroke-width="0.5"/>
    <line x1="940" y1="278" x2="1140" y2="278" stroke="#fac775" stroke-width="0.5"/>
    <line x1="940" y1="296" x2="1140" y2="296" stroke="#fac775" stroke-width="0.5"/>
    <line x1="940" y1="314" x2="1140" y2="314" stroke="#fac775" stroke-width="0.5"/>
    <line x1="940" y1="332" x2="1140" y2="332" stroke="#fac775" stroke-width="0.5"/>
  </g>

  <!-- ===== ÖDÜNÇ ALMA (center) ===== -->
  <g id="odunc">
    <rect x="420" y="380" width="220" height="222" rx="8" fill="#fbeaf0" stroke="#993556" stroke-width="1.5"/>
    <rect x="420" y="380" width="220" height="34" rx="8" fill="#993556"/>
    <rect x="420" y="406" width="220" height="8" fill="#993556"/>
    <text x="530" y="403" text-anchor="middle" font-size="13" font-weight="700" fill="#ffffff">ÖDÜNÇ ALMA</text>
    <text x="435" y="434" font-size="11" fill="#72243e">🔑 odunc_id (PK)</text>
    <text x="435" y="452" font-size="11" fill="#4b1528">🔗 ogrenci_id (FK)</text>
    <text x="435" y="470" font-size="11" fill="#4b1528">🔗 kitap_id (FK)</text>
    <text x="435" y="488" font-size="11" fill="#4b1528">🔗 gorevli_id (FK)</text>
    <text x="435" y="506" font-size="11" fill="#4b1528">odunc_tarihi</text>
    <text x="435" y="524" font-size="11" fill="#4b1528">iade_beklenen</text>
    <text x="435" y="542" font-size="11" fill="#4b1528">durum</text>
    <line x1="420" y1="440" x2="640" y2="440" stroke="#f4c0d1" stroke-width="0.5"/>
    <line x1="420" y1="458" x2="640" y2="458" stroke="#f4c0d1" stroke-width="0.5"/>
    <line x1="420" y1="476" x2="640" y2="476" stroke="#f4c0d1" stroke-width="0.5"/>
    <line x1="420" y1="494" x2="640" y2="494" stroke="#f4c0d1" stroke-width="0.5"/>
    <line x1="420" y1="512" x2="640" y2="512" stroke="#f4c0d1" stroke-width="0.5"/>
    <line x1="420" y1="530" x2="640" y2="530" stroke="#f4c0d1" stroke-width="0.5"/>
  </g>

  <!-- ===== İADE (bottom center-right) ===== -->
  <g id="iade">
    <rect x="680" y="580" width="210" height="222" rx="8" fill="#eeedfe" stroke="#534ab7" stroke-width="1.5"/>
    <rect x="680" y="580" width="210" height="34" rx="8" fill="#534ab7"/>
    <rect x="680" y="606" width="210" height="8" fill="#534ab7"/>
    <text x="785" y="603" text-anchor="middle" font-size="13" font-weight="700" fill="#ffffff">İADE</text>
    <text x="695" y="634" font-size="11" fill="#3c3489">🔑 iade_id (PK)</text>
    <text x="695" y="652" font-size="11" fill="#26215c">🔗 odunc_id (FK)</text>
    <text x="695" y="670" font-size="11" fill="#26215c">🔗 gorevli_id (FK)</text>
    <text x="695" y="688" font-size="11" fill="#26215c">iade_tarihi</text>
    <text x="695" y="706" font-size="11" fill="#26215c">gecikme_gunu</text>
    <text x="695" y="724" font-size="11" fill="#26215c">ceza_tutari</text>
    <text x="695" y="742" font-size="11" fill="#26215c">notlar</text>
    <line x1="680" y1="640" x2="890" y2="640" stroke="#cecbf6" stroke-width="0.5"/>
    <line x1="680" y1="658" x2="890" y2="658" stroke="#cecbf6" stroke-width="0.5"/>
    <line x1="680" y1="676" x2="890" y2="676" stroke="#cecbf6" stroke-width="0.5"/>
    <line x1="680" y1="694" x2="890" y2="694" stroke="#cecbf6" stroke-width="0.5"/>
    <line x1="680" y1="712" x2="890" y2="712" stroke="#cecbf6" stroke-width="0.5"/>
    <line x1="680" y1="730" x2="890" y2="730" stroke="#cecbf6" stroke-width="0.5"/>
  </g>

  <!-- ===== REZERVASYON (bottom left) ===== -->
  <g id="rezervasyon">
    <rect x="60" y="580" width="210" height="186" rx="8" fill="#eaf3de" stroke="#3b6d11" stroke-width="1.5"/>
    <rect x="60" y="580" width="210" height="34" rx="8" fill="#3b6d11"/>
    <rect x="60" y="606" width="210" height="8" fill="#3b6d11"/>
    <text x="165" y="603" text-anchor="middle" font-size="13" font-weight="700" fill="#ffffff">REZERVASYON</text>
    <text x="75" y="634" font-size="11" fill="#27500a">🔑 rezervasyon_id (PK)</text>
    <text x="75" y="652" font-size="11" fill="#173404">🔗 ogrenci_id (FK)</text>
    <text x="75" y="670" font-size="11" fill="#173404">🔗 kitap_id (FK)</text>
    <text x="75" y="688" font-size="11" fill="#173404">rezervasyon_tarihi</text>
    <text x="75" y="706" font-size="11" fill="#173404">durum</text>
    <line x1="60" y1="640" x2="270" y2="640" stroke="#c0dd97" stroke-width="0.5"/>
    <line x1="60" y1="658" x2="270" y2="658" stroke="#c0dd97" stroke-width="0.5"/>
    <line x1="60" y1="676" x2="270" y2="676" stroke="#c0dd97" stroke-width="0.5"/>
    <line x1="60" y1="694" x2="270" y2="694" stroke="#c0dd97" stroke-width="0.5"/>
  </g>

  <!-- ===== CEZA (bottom far right) ===== -->
  <g id="ceza">
    <rect x="940" y="580" width="210" height="186" rx="8" fill="#fcebeb" stroke="#a32d2d" stroke-width="1.5"/>
    <rect x="940" y="580" width="210" height="34" rx="8" fill="#a32d2d"/>
    <rect x="940" y="606" width="210" height="8" fill="#a32d2d"/>
    <text x="1045" y="603" text-anchor="middle" font-size="13" font-weight="700" fill="#ffffff">CEZA</text>
    <text x="955" y="634" font-size="11" fill="#791f1f">🔑 ceza_id (PK)</text>
    <text x="955" y="652" font-size="11" fill="#501313">🔗 ogrenci_id (FK)</text>
    <text x="955" y="670" font-size="11" fill="#501313">tutar</text>
    <text x="955" y="688" font-size="11" fill="#501313">olusturma_tarihi</text>
    <text x="955" y="706" font-size="11" fill="#501313">odeme_durumu</text>
    <line x1="940" y1="640" x2="1150" y2="640" stroke="#f7c1c1" stroke-width="0.5"/>
    <line x1="940" y1="658" x2="1150" y2="658" stroke="#f7c1c1" stroke-width="0.5"/>
    <line x1="940" y1="676" x2="1150" y2="676" stroke="#f7c1c1" stroke-width="0.5"/>
    <line x1="940" y1="694" x2="1150" y2="694" stroke="#f7c1c1" stroke-width="0.5"/>
  </g>

  <!-- ============= RELATIONS ============= -->

  <!-- ÖĞRENCİ → ÖDÜNÇ ALMA (1 to many) -->
  <path d="M260 311 L420 491" fill="none" stroke="#73726c" stroke-width="1.2" marker-end="url(#arrow)"/>
  <text x="300" y="385" font-size="10" fill="#5f5e5a" transform="rotate(-30,300,385)">1..* ödünç alır</text>

  <!-- KİTAP → ÖDÜNÇ ALMA (1 to many) -->
  <path d="M560 300 L540 380" fill="none" stroke="#73726c" stroke-width="1.2" marker-end="url(#arrow)"/>
  <text x="555" y="348" font-size="10" fill="#5f5e5a" text-anchor="end">1..* verilir</text>

  <!-- GÖREVLİ → ÖDÜNÇ ALMA (1 to many) -->
  <path d="M940 311 L640 491" fill="none" stroke="#73726c" stroke-width="1.2" marker-end="url(#arrow)"/>
  <text x="830" y="390" font-size="10" fill="#5f5e5a" transform="rotate(30,830,390)">1..* işler</text>

  <!-- ÖDÜNÇ ALMA → İADE (1 to 1) -->
  <path d="M640 502 L680 622" fill="none" stroke="#73726c" stroke-width="1.2" marker-end="url(#arrow)"/>
  <text x="660" y="570" font-size="10" fill="#5f5e5a">1:1 iade</text>

  <!-- GÖREVLİ → İADE (1 to many) -->
  <path d="M1040 404 L860 580" fill="none" stroke="#73726c" stroke-width="1.2" stroke-dasharray="5,3" marker-end="url(#arrow)"/>
  <text x="980" y="490" font-size="10" fill="#5f5e5a" transform="rotate(-30,980,490)">1..* teslim alır</text>

  <!-- ÖĞRENCİ → REZERVASYON (1 to many) -->
  <path d="M160 422 L160 580" fill="none" stroke="#73726c" stroke-width="1.2" stroke-dasharray="5,3" marker-end="url(#arrow)"/>
  <text x="168" y="510" font-size="10" fill="#5f5e5a">1..* rezerve</text>

  <!-- KİTAP → REZERVASYON (1 to many) -->
  <path d="M490 300 L200 600" fill="none" stroke="#73726c" stroke-width="1.2" stroke-dasharray="5,3" marker-end="url(#arrow)"/>
  <text x="290" y="470" font-size="10" fill="#5f5e5a" transform="rotate(-50,290,470)">rezerve edilir</text>

  <!-- ÖĞRENCİ → CEZA (1 to many) -->
  <path d="M260 345 L940 640" fill="none" stroke="#e24b4a" stroke-width="1" stroke-dasharray="4,3" marker-end="url(#arrow)"/>
  <text x="580" y="520" font-size="10" fill="#a32d2d">1..* ceza alır</text>

  <!-- ============= LEGEND ============= -->
  <rect x="60" y="830" width="1080" height="50" rx="6" fill="#f1efe8" stroke="#d3d1c7" stroke-width="1"/>
  <text x="80" y="852" font-size="11" fill="#444441" font-weight="600">Gösterim:</text>
  <line x1="165" y1="848" x2="210" y2="848" stroke="#73726c" stroke-width="1.5" marker-end="url(#arrow)"/>
  <text x="218" y="852" font-size="11" fill="#5f5e5a">Zorunlu ilişki</text>
  <line x1="330" y1="848" x2="375" y2="848" stroke="#73726c" stroke-width="1.5" stroke-dasharray="5,3" marker-end="url(#arrow)"/>
  <text x="383" y="852" font-size="11" fill="#5f5e5a">İsteğe bağlı ilişki</text>
  <text x="530" y="852" font-size="11" fill="#5f5e5a">🔑 = Birincil Anahtar (PK)</text>
  <text x="730" y="852" font-size="11" fill="#5f5e5a">🔗 = Yabancı Anahtar (FK)</text>
  <text x="930" y="852" font-size="11" fill="#5f5e5a">1..* = Bir veya Çok</text>
  <line x1="80" y1="862" x2="1120" y2="862" stroke="#d3d1c7" stroke-width="0.5"/>
  <text x="600" y="875" text-anchor="middle" font-size="10" fill="#888780">Kütüphane Yönetim Sistemi — Varlık İlişki Diyagramı</text>
</svg>
